<svg width="196" height="125" viewBox="0 0 196 125" fill="none" xmlns="http://www.w3.org/2000/svg">
<g filter="url(#filter0_d_127_8262)">
<rect x="40" y="24" width="116" height="45" rx="22.5" fill="white"/>
<path d="M75.9159 45.44H72.8759V43.44H75.9159V38.48H78.2959V51.72H75.9159V45.44ZM64.6759 50.22L63.3959 48.46C65.0759 47.8067 66.3826 47.2133 67.3159 46.68C68.2626 46.1333 68.9559 45.56 69.3959 44.96L63.7559 45.48L63.4359 43.48L70.0559 43.18C70.0693 43.0733 70.0759 42.9133 70.0759 42.7V41.58H64.2159V39.66H72.3359V42.6C72.3359 43.7867 72.0826 44.8067 71.5759 45.66C71.0693 46.5 70.2693 47.2733 69.1759 47.98C68.0959 48.6867 66.5959 49.4333 64.6759 50.22ZM78.6359 54.54V56.5H68.2759C67.2626 56.5 66.7559 55.9933 66.7559 54.98V50.4H69.1559V54.54H78.6359ZM96.068 38.48V56.12H93.668V38.48H96.068ZM91.908 49.44L92.188 51.36C91.0413 51.56 89.8346 51.7133 88.568 51.82C87.3013 51.9133 85.7546 51.96 83.928 51.96H81.928V39.76H90.448V41.74H84.308V44.68H90.208V46.64H84.308V50C87.0413 49.9867 89.5746 49.8 91.908 49.44ZM114.32 52.08H112.04V38.48H114.32V52.08ZM108.22 44.42H104.94V42.46H108.22V38.74H110.44V51.54H108.22V44.42ZM106.96 48.18C105.187 48.5933 103.107 48.8 100.72 48.8H99.26V39.94H101.5V46.82C103.473 46.8067 105.2 46.62 106.68 46.26L106.96 48.18ZM114.7 54.54V56.5H103.74C102.727 56.5 102.22 55.9933 102.22 54.98V50.28H104.62V54.54H114.7ZM133.492 42.26V44.26H130.812V47.86H128.432V38.48H130.812V42.26H133.492ZM126.732 47.16C125.599 47.32 124.425 47.4467 123.212 47.54C122.012 47.6333 120.572 47.68 118.892 47.68H117.012V39.18H125.412V41H119.272V42.48H125.152V44.28H119.272V45.86C121.992 45.86 124.392 45.7 126.472 45.38L126.732 47.16ZM121.632 55.1H131.212V56.96H120.792C119.779 56.96 119.272 56.4533 119.272 55.44V51.96H128.472V50.58H119.192V48.74H130.812V53.68H121.632V55.1Z" fill="#FFA500"/>
</g>
<defs>
<filter id="filter0_d_127_8262" x="0" y="0" width="196" height="125" filterUnits="userSpaceOnUse" color-interpolation-filters="sRGB">
<feFlood flood-opacity="0" result="BackgroundImageFix"/>
<feColorMatrix in="SourceAlpha" type="matrix" values="0 0 0 0 0 0 0 0 0 0 0 0 0 0 0 0 0 0 127 0" result="hardAlpha"/>
<feOffset dy="16"/>
<feGaussianBlur stdDeviation="20"/>
<feComposite in2="hardAlpha" operator="out"/>
<feColorMatrix type="matrix" values="0 0 0 0 0.439216 0 0 0 0 0.564706 0 0 0 0 0.690196 0 0 0 0.2 0"/>
<feBlend mode="normal" in2="BackgroundImageFix" result="effect1_dropShadow_127_8262"/>
<feBlend mode="normal" in="SourceGraphic" in2="effect1_dropShadow_127_8262" result="shape"/>
</filter>
</defs>
</svg>
