<svg width="36" height="31" viewBox="0 0 36 31" fill="none" xmlns="http://www.w3.org/2000/svg">
<path d="M16.8507 4.48116L17.6471 5.52962L18.4434 4.48116C20.0434 2.37459 22.6118 1 25.4824 1C30.3573 1 34.2941 4.90746 34.2941 9.71684C34.2941 11.6749 33.9771 13.4818 33.4264 15.1584L33.4243 15.165C32.1035 19.2819 29.3946 22.6064 26.462 25.089C23.5255 27.5749 20.4241 29.1658 18.4234 29.8363L18.4234 29.8363L18.4128 29.8399C18.2515 29.896 17.9738 29.9409 17.6471 29.9409C17.3203 29.9409 17.0426 29.896 16.8813 29.8399L16.8813 29.8399L16.8707 29.8363C14.87 29.1658 11.7687 27.5749 8.83215 25.089C5.89955 22.6064 3.19058 19.2819 1.86985 15.165L1.86987 15.165L1.86771 15.1584C1.31702 13.4818 1 11.6749 1 9.71684C1 4.90746 4.93681 1 9.81176 1C12.6823 1 15.2507 2.37459 16.8507 4.48116Z" fill="white" stroke="black" stroke-width="2"/>
</svg>
